<svg width="218" height="62" viewBox="0 0 218 62" fill="none" xmlns="http://www.w3.org/2000/svg">
<path d="M1.39479 2.92712C1.30859 17.551 1.30859 32.0466 1.30859 46.5423C1.30859 50.6472 1.30859 54.7522 1.30859 58.8571C1.30859 59.6268 2.17053 59.6268 2.17053 58.8571C2.17053 44.3615 2.17053 29.8659 2.17053 15.242C2.17053 11.137 2.17053 7.03208 2.08433 2.92712C2.08433 2.28573 1.39479 2.28573 1.39479 2.92712Z" fill="#303342"/>
<path d="M0.705952 60.0117C14.5831 60.9096 28.4602 60.6531 42.3374 60.1399C56.3007 59.6268 70.2641 58.7289 84.3136 58.344C98.7079 57.9592 113.016 57.9592 127.41 57.9592C141.977 57.9592 156.544 58.0875 171.11 58.2157C177.92 58.344 184.729 58.344 191.538 58.6006C197.486 58.8571 203.519 59.3703 209.466 58.9854C210.846 58.8571 212.138 58.7289 213.518 58.4723C214.121 58.344 214.121 57.0612 213.518 57.0612C207.743 57.8309 201.881 57.4461 196.02 57.1895C189.556 56.8047 183.091 56.8047 176.627 56.6764C162.06 56.4198 147.493 56.4198 132.927 56.4198C118.446 56.4198 103.966 56.4198 89.5714 56.8047C75.6081 57.0612 61.7309 57.9592 47.7676 58.6006C33.8042 59.242 19.8409 59.6268 5.96375 58.9854C4.23988 58.8571 2.51601 58.8572 0.792146 58.7289C0.102598 58.6006 0.102598 60.0117 0.705952 60.0117Z" fill="#303342"/>
<path d="M1.73964 4.20994C7.08364 4.97962 12.6 4.59478 17.944 4.4665C24.3223 4.33822 30.7006 4.08166 37.079 3.69682C49.9218 3.05542 62.7646 2.41402 75.6074 2.15746C91.3808 1.77262 107.154 1.51606 122.928 1.51606C138.701 1.51606 154.474 1.64434 170.248 2.02918C184.039 2.41402 197.83 1.9009 211.621 3.1837C213.258 3.31198 214.896 3.44026 216.534 3.69682C217.051 3.8251 217.051 2.5423 216.534 2.41402C202.743 0.618101 188.866 1.13122 175.075 0.874661C159.56 0.618101 144.131 0.361542 128.616 0.361542C112.843 0.361542 97.0696 0.618101 81.2962 0.874661C68.1948 1.13122 55.0934 1.77262 41.9058 2.41402C29.7525 3.05542 17.5992 3.69682 5.53215 3.69682C4.23925 3.69682 3.03254 3.69682 1.73964 3.8251C1.56725 3.8251 1.56725 4.20994 1.73964 4.20994Z" fill="#303342"/>
<path d="M216.276 6.13414C216.276 20.5015 216.017 34.8688 216.534 49.2362C216.707 53.3411 216.879 57.4461 217.224 61.4227C217.31 62.1924 217.999 62.1924 217.999 61.4227C217.482 54.2391 217.138 47.0554 216.965 39.8717C216.793 32.6881 216.793 25.5044 216.879 18.449C216.879 14.344 216.879 10.2391 216.879 6.26242C216.879 5.49274 216.276 5.49274 216.276 6.13414Z" fill="#303342"/>
</svg>
