<svg width="470" height="62" viewBox="0 0 470 62" fill="none" xmlns="http://www.w3.org/2000/svg">
<path d="M2.44289 2.56552C2.25684 17.1894 2.25684 31.685 2.25684 46.1807C2.25684 50.2856 2.25684 54.3906 2.25684 58.4955C2.25684 59.2652 4.11739 59.2652 4.11739 58.4955C4.11739 43.9999 4.11739 29.5043 4.11739 14.8804C4.11739 10.7754 4.11739 6.67048 3.93133 2.56552C3.93133 1.92412 2.44289 1.92412 2.44289 2.56552Z" fill="#191919"/>
<path d="M0.954698 59.6502C30.9096 60.5481 60.8645 60.2916 90.8195 59.7785C120.96 59.2653 151.101 58.3674 181.428 57.9825C212.5 57.5977 243.385 57.5977 274.456 57.5977C305.899 57.5977 337.343 57.726 368.786 57.8543C383.485 57.9825 398.183 57.9825 412.881 58.2391C425.719 58.4957 438.743 59.0088 451.581 58.6239C454.558 58.4957 457.349 58.3674 460.325 58.1108C461.628 57.9825 461.628 56.6997 460.325 56.6997C447.86 57.4694 435.208 57.0846 422.556 56.828C408.602 56.4432 394.648 56.4432 380.694 56.3149C349.25 56.0584 317.807 56.0583 286.364 56.0583C255.106 56.0583 223.849 56.0584 192.778 56.4432C162.637 56.6998 132.682 57.5977 102.541 58.2391C72.4 58.8805 42.259 59.2653 12.3041 58.6239C8.58297 58.4957 4.86186 58.4957 1.14075 58.3674C-0.34769 58.2391 -0.34769 59.6502 0.954698 59.6502Z" fill="#191919"/>
<path d="M3.18631 3.84839C14.7217 4.61807 26.6293 4.23323 38.1647 4.10495C51.9328 3.97667 65.7009 3.72011 79.469 3.33528C107.191 2.69388 134.914 2.05248 162.636 1.79592C196.684 1.41108 230.732 1.15452 264.78 1.15452C298.828 1.15452 332.876 1.2828 366.925 1.66764C396.693 2.05248 426.462 1.53936 456.231 2.82216C459.766 2.95044 463.301 3.07872 466.836 3.33528C467.953 3.46356 467.953 2.18076 466.836 2.05248C437.068 0.25656 407.113 0.769679 377.344 0.513119C343.854 0.256559 310.55 0 277.06 0C243.012 0 208.964 0.256559 174.915 0.513119C146.635 0.769679 118.355 1.41108 89.8881 2.05248C63.6543 2.69388 37.4205 3.33528 11.3727 3.33528C8.58192 3.33528 5.97714 3.33528 3.18631 3.46356C2.8142 3.46356 2.8142 3.84839 3.18631 3.84839Z" fill="#191919"/>
<path d="M466.278 5.77251C466.278 20.1398 465.72 34.5072 466.836 48.8745C467.208 52.9795 467.581 57.0844 468.325 61.0611C468.511 61.8308 469.999 61.8308 469.999 61.0611C468.883 53.8774 468.139 46.6938 467.767 39.5101C467.395 32.3264 467.395 25.1428 467.581 18.0874C467.581 13.9824 467.581 9.87746 467.581 5.90079C467.581 5.13111 466.278 5.13111 466.278 5.77251Z" fill="#191919"/>
</svg>
