<svg width="780" height="79" viewBox="0 0 780 79" fill="none" xmlns="http://www.w3.org/2000/svg">
<path d="M2.55809 5.20494C2.36328 23.4734 2.36328 41.5816 2.36328 59.6899C2.36328 64.8178 2.36328 69.9458 2.36328 75.0738C2.36328 76.0353 4.31132 76.0353 4.31132 75.0738C4.31132 56.9656 4.31132 38.8574 4.31132 20.5889C4.31132 15.4609 4.31132 10.3329 4.11652 5.20494C4.11652 4.40369 2.55809 4.40369 2.55809 5.20494Z" fill="#191919"/>
<path d="M1.61024 78.0244C52.1338 79.2805 102.657 78.9217 153.181 78.2039C204.018 77.4861 254.856 76.23 306.007 75.6917C358.413 75.1533 410.506 75.1533 462.912 75.1533C515.946 75.1533 568.98 75.3328 622.014 75.5122C646.805 75.6917 671.596 75.6917 696.388 76.0505C718.04 76.4094 740.007 77.1272 761.66 76.5889C766.681 76.4094 771.388 76.23 776.409 75.8711C778.606 75.6917 778.606 73.8972 776.409 73.8972C755.384 74.9739 734.045 74.4356 712.706 74.0767C689.17 73.5383 665.634 73.5383 642.098 73.3589C589.064 73 536.03 73 482.996 73C430.276 73 377.556 73 325.149 73.5383C274.312 73.8972 223.788 75.1533 172.951 76.0505C122.114 76.9478 71.2763 77.4861 20.7527 76.5889C14.4765 76.4094 8.20027 76.4094 1.92405 76.23C-0.586433 76.0506 -0.586433 78.0244 1.61024 78.0244Z" fill="#191919"/>
<path d="M3.51128 4.50277C22.747 5.32285 42.6031 4.91281 61.8388 4.77613C84.7975 4.63945 107.756 4.36608 130.715 3.95604C176.943 3.27264 223.17 2.58924 269.398 2.31587C326.174 1.90583 382.951 1.63247 439.727 1.63247C496.503 1.63247 553.279 1.76915 610.056 2.17919C659.696 2.58923 709.337 2.04251 758.977 3.40932C764.872 3.546 770.767 3.68268 776.661 3.95604C778.523 4.09272 778.523 2.72592 776.661 2.58924C727.021 0.675705 677.07 1.22243 627.43 0.949066C571.584 0.675705 516.049 0.402344 460.203 0.402344C403.427 0.402344 346.651 0.675705 289.875 0.949066C242.716 1.22243 195.558 1.90583 148.089 2.58924C104.343 3.27264 60.5978 3.95604 17.1624 3.95604C12.5086 3.95604 8.16507 3.95604 3.51128 4.09272C2.89077 4.09272 2.89077 4.50277 3.51128 4.50277Z" fill="#191919"/>
<path d="M776.104 3.58227C776.104 21.5302 775.52 39.4782 776.689 57.4262C777.078 62.5542 777.468 67.6822 778.247 72.6499C778.442 73.6114 780 73.6114 780 72.6499C778.831 63.6759 778.052 54.7019 777.663 45.728C777.273 36.754 777.273 27.78 777.468 18.9662C777.468 13.8383 777.468 8.71026 777.468 3.74252C777.468 2.78102 776.104 2.78102 776.104 3.58227Z" fill="#191919"/>
</svg>
