<svg width="900" height="5" viewBox="0 0 900 5" fill="none" xmlns="http://www.w3.org/2000/svg">
<path d="M0.540432 4.16332C22.8783 4.99599 45.9367 4.57966 68.2746 4.44088C94.9359 4.3021 121.597 4.02455 148.259 3.60821C201.942 2.91433 255.624 2.22044 309.307 1.94288C375.24 1.52655 441.173 1.249 507.106 1.249C573.038 1.249 638.971 1.38777 704.904 1.80411C762.55 2.22044 820.196 1.66533 877.842 3.0531C884.688 3.19188 891.533 3.33066 898.379 3.60821C900.54 3.74699 900.54 2.35922 898.379 2.22044C840.733 0.277555 782.726 0.832664 725.08 0.55511C660.228 0.277555 595.737 0 530.885 0C464.952 0 399.019 0.277555 333.086 0.55511C278.323 0.832664 223.559 1.52655 168.435 2.22044C117.634 2.91433 66.8335 3.60821 16.3931 3.60821C10.9888 3.60821 5.94476 3.60821 0.540432 3.74699C-0.180144 3.74699 -0.180144 4.16332 0.540432 4.16332Z" fill="#191919"/>
</svg>
