<svg xmlns="http://www.w3.org/2000/svg" width="13.076" height="13.076" viewBox="0 0 13.076 13.076">
  <path id="Caminho_8379" data-name="Caminho 8379" d="M6.538,0a6.538,6.538,0,1,0,6.538,6.538A6.538,6.538,0,0,0,6.538,0Zm5.993,6.266H10.483a9.761,9.761,0,0,0-.569-3.119,3,3,0,0,0,1.06-.637,5.969,5.969,0,0,1,1.558,3.757ZM2.1,10.562A5.944,5.944,0,0,1,.545,6.811H2.593A9.807,9.807,0,0,0,3.16,9.927a3.057,3.057,0,0,0-1.06.635Zm0-8.053a2.956,2.956,0,0,0,1.057.637,9.761,9.761,0,0,0-.564,3.119H.545A5.958,5.958,0,0,1,2.106,2.509Zm7.1.3a9.807,9.807,0,0,1-2.386.324V.567A3.452,3.452,0,0,1,9.2,2.811ZM6.266.567V3.136a9.807,9.807,0,0,1-2.392-.324A3.452,3.452,0,0,1,6.266.567Zm0,3.114V6.266H3.136A9.535,9.535,0,0,1,3.68,3.318a10.352,10.352,0,0,0,2.585.362Zm-3.13,3.13h3.13V9.4a10.368,10.368,0,0,0-2.6.36,9.494,9.494,0,0,1-.531-2.945Zm3.13,3.13V12.51a3.446,3.446,0,0,1-2.392-2.247,9.807,9.807,0,0,1,2.392-.321Zm.545,2.569V9.941a9.807,9.807,0,0,1,2.392.324A3.452,3.452,0,0,1,6.811,12.51Zm0-3.114V6.811h3.13A9.431,9.431,0,0,1,9.4,9.758,10.3,10.3,0,0,0,6.811,9.4Zm0-3.13V3.68a10.352,10.352,0,0,0,2.6-.362,9.535,9.535,0,0,1,.545,2.948Zm3.778-4.141a2.487,2.487,0,0,1-.88.52A5.647,5.647,0,0,0,8.516.883a5.993,5.993,0,0,1,2.073,1.242Zm-7.222.52a2.487,2.487,0,0,1-.88-.52A5.966,5.966,0,0,1,4.56.883,5.647,5.647,0,0,0,3.367,2.645Zm-.883,8.3a2.5,2.5,0,0,1,.883-.52A5.582,5.582,0,0,0,4.56,12.194a6.026,6.026,0,0,1-2.076-1.245Zm7.225-.515a2.452,2.452,0,0,1,.874.52,5.936,5.936,0,0,1-2.068,1.24A5.631,5.631,0,0,0,9.709,10.434Zm1.259.136a3,3,0,0,0-1.054-.64,9.747,9.747,0,0,0,.569-3.119h2.049A5.947,5.947,0,0,1,10.968,10.57Z" fill="#fff"/>
</svg>
