<svg width="25" height="25" viewBox="0 0 25 25" fill="none" xmlns="http://www.w3.org/2000/svg">
<path d="M12.4999 2.08325C6.74992 2.08325 2.08325 6.74992 2.08325 12.4999C2.08325 18.2499 6.74992 22.9166 12.4999 22.9166C18.2499 22.9166 22.9166 18.2499 22.9166 12.4999C22.9166 6.74992 18.2499 2.08325 12.4999 2.08325ZM9.677 16.9687L5.93742 13.2291C5.53117 12.8228 5.53117 12.1666 5.93742 11.7603C6.34367 11.3541 6.99992 11.3541 7.40617 11.7603L10.4166 14.7603L17.5833 7.59367C17.9895 7.18742 18.6458 7.18742 19.052 7.59367C19.4583 7.99992 19.4583 8.65617 19.052 9.06242L11.1458 16.9687C10.7499 17.3749 10.0833 17.3749 9.677 16.9687Z" fill="#191919"/>
</svg>
