<svg xmlns="http://www.w3.org/2000/svg" width="1912" height="2188" viewBox="0 0 1912 2188">
  <g id="Grupo_6712" data-name="Grupo 6712" transform="translate(69 587)">
    <rect id="Retângulo_78" data-name="Retângulo 78" width="1912" height="2188" transform="translate(-69 -587)" fill="#0d0d0d"/>
    <path id="Interseção_1" data-name="Interseção 1" d="M218.6,1346.477C127.674,1416.8,48.536,1496.854-68.7,1515.65v-77.908c191.062-24.916,290.2-245.2,484.241-257.41,82.6.264,144.888,65.266,192.623,125.835,357.379,521.45,406.662,69.651,711.133-119.267,212.091-43.312,321.375,231.48,523.7,250.838v77.909c-202.417-19.178-311.516-294.881-523.734-249.779-163.576,55.206-238.353,334.3-423.163,334.748C621.693,1582.159,550.606,1044.263,218.6,1346.477Zm674.415,166.828c-68.846,0-137.955-60.053-214.015-177.6-326.5-528.351-376.088-98.867-747.7,3.353v-77.909c117.233-18.795,196.371-98.848,287.3-169.159,238.369-218.768,343.917,10.581,459.1,205.982,306.481,546.22,392.259-132.851,641.39-281.19,199.117-64.376,326.651,229.826,523.908,244.363v77.9c-362.511-97.75-426.623-529.206-740.625-3.368-73.82,119.228-141.462,177.623-209.353,177.627Zm-4.253-30.293c-68.569-.015-137.277-79.672-212.528-237.919C368.047,585.167,325.049,1053.5-68.7,1162.463v-77.908c232.041-21.709,450.5-484.006,625.708-117.431,162.985,269.5,299.236,784.094,541.923,221.033,53.718-102.578,111.75-283.67,220.03-343.966,189.556-77.429,330.546,228.594,524.036,240.362v77.9c-381.585-102.307-438.895-573.236-743.392,82.624-74.4,158.965-142.548,237.932-210.825,237.936Zm4.753-152.792c-62.5-.016-128.157-68.547-197.775-222.574C339.723,371.218,267.085,885.788-68.7,985.869V907.961c186.367-42.478,295.952-400.02,514.268-236.015C567.536,763.569,644.9,906.375,726.125,1032c39.979,61.839,105.545,186,193.046,181.7,220.084-60.69,196.281-481.616,409.38-559.043,163.49-9.168,308.274,245.38,514.45,253.3v77.9c-403.687-98.878-467.966-573.341-739.648,85.212-66.476,163.412-135.94,259.145-209.813,259.149ZM943.59,1042.6c-49.787-.008-107-34.607-173.461-117.944-132.952-125.135-387.275-565.1-589.045-365.6C94.811,644.082,55.576,774.107-68.7,809.276V731.368c126.52-41.5,152.114-186.236,237.33-276.676,127.959-133.085,283.035,35.758,442.375,204.6C738.7,794.6,869.127,929.9,990.537,909.826c195.3-39.568,159.561-442.26,364.212-445.482,44.155,7.887,77.8,57.751,110.312,87.211,104.4,100.014,229.364,178.8,377.939,179.813v77.909c-353.255-.638-483.545-574.778-696.343-7.923-51.713,135.675-116.08,241.237-203.05,241.249Zm5.031-266.818c-136.564,0-263.775-124.3-381.037-248.585C411.6,361.867,273.212,196.536,153.773,323.735,69.221,421.046,60.838,583.258-68.7,632.684V554.774C61.794,504,67.436,338.326,152.134,239.512c119.7-126.565,253.5,38.72,406.707,204.006C694.71,590.1,845.838,736.686,1015.92,679.7c157.739-36.865,166.364-471.806,344.984-401.161,50.113,19.821,82.379,81.553,118.685,120.467,92.854,113.712,217.42,166,363.412,155.773v77.909c-143.487,8.97-276.21-48.094-367.366-159.689-34.292-36.69-65.138-97.5-112.578-115.352-171.071-64.358-187.555,373.3-346.792,407.658a224.046,224.046,0,0,1-67.625,10.481Zm-18.643-199.56c-95.839,0-237.22-83.831-463.922-328.544C115.079-131.351,169.646,339.207-68.7,456.09V378.181C60.221,334.233,83.478,183.118,169.061,89.286,290.6-34.349,416.51,109.979,556.28,254.309,676.357,378.3,806.664,502.3,953.215,456.381c179.1-36.466,171.331-414.359,392.818-348.32,180.793,73.5,266.587,283.86,496.967,270.122v77.909c-270.611,12.833-299.987-178.113-489.759-272.338-117.762-27.113-167.7,83.525-220.939,194.163-47.714,99.151-98.087,198.3-202.315,198.307ZM862.3,328.783c-164.2-.021-285.765-164.487-399.863-267.063C160.231-250.732,158.474,192.926-68.7,279.5V201.587C58.649,164.021,99.107,28.329,185.988-60.923,299.719-185.852,423.9-62.79,554.274,60.271,660.345,160.393,770.516,260.513,882.5,227.084c195.76-33.943,202.843-344.811,447.86-290.1C1526.027-19.325,1637.528,189.4,1843,201.585V279.5c-207.452,4.7-322.412-213.914-506.238-267.419C1099.434-49.259,1098.783,289.04,908.615,324.453a252.1,252.1,0,0,1-46.281,4.33ZM458.622-124.7C200.558-369.951,143.689,44.981-68.7,102.9V24.995C55.573-6.6,110.03-125.224,197.84-208.916c134.673-127.726,257.925-11.6,384.054,104.523,149.361,137.514,302.757,275.027,483.933,7.6C1346.3-450.269,1560.867-19.338,1843,24.989V102.9c-276.673-34.458-515.844-480.725-786.171-134.425-52.525,62.666-96.564,141.3-183.283,153.93a225.986,225.986,0,0,1-32.622,2.379C686.426,124.777,570.565-35.664,458.622-124.7ZM720.905-91.851C573.553-194.857,389.731-473.041,204.014-289.013,115.3-209.3,53.639-101.267-68.7-73.69V-151.6c411.01-211.786,328.047-469.484,778.72-26.8,49.211,45.405,107.19,93.866,178.513,89.877,186.335-10.419,233.61-302.917,431.026-318.265C1528.267-423.014,1645.106-177.5,1843-151.6V-73.7c-292.081-60.778-477.094-477.173-766.849-102.713C1023.745-115.989,969.39-33.682,882.9-27.037c-4.487.345-8.9.511-13.256.511C811.811-26.529,765.032-56.039,720.905-91.851ZM694.99-291C273.957-751.984,310.229-372.083-68.7-250.284v-77.908c197.238-21.268,300.2-270.317,503.48-257.567,187.861,37.777,262.355,342.969,461.33,342.531C1102.059-259.822,1185.349-573.1,1361.023-587H1385.3c48.463,3.749,103.976,30.022,170.442,89.635C1647.073-426.743,1725-347.134,1843-328.2v77.909c-189.191-28.523-326.924-297.022-526.481-253.5C1138.575-464.978,1078.693-176,894.256-170.578c-1.318.039-2.618.058-3.929.058C811.808-170.529,746.533-239.54,694.99-291Z"/>
  </g>
</svg>
