<svg id="Camada_1" data-name="Camada 1" xmlns="http://www.w3.org/2000/svg" viewBox="0 0 300 300"><defs><style>.cls-1{fill:#191919;}</style></defs><path class="cls-1" d="M52.25,71.62a22.08,22.08,0,0,0-.92-2.55l-.45,1.13h0l-.75-.2c.52.53,1,1.15,1.46,1.7A45,45,0,0,0,55.17,75q4.32,3.81,8.5,7.78c5.59,5.3,11,10.81,16.53,16.17s11.21,10.59,17.23,15.43q8.73,7,17.64,13.88c12.43,9.54,25.12,18.75,38.1,27.52s26.54,17.3,40.33,25.08A425.86,425.86,0,0,0,235,201.54q2.53,1.1,5.09,2.14c1.91.78,2.76-2.34.86-3.1a390,390,0,0,1-41.72-20c-13.88-7.59-27.38-15.86-40.58-24.58s-25.91-17.79-38.46-27.24C108,119.58,95.75,110.27,84.57,99.74,79,94.45,73.47,89,67.84,83.74,65,81.12,62.22,78.48,59.28,76a70.34,70.34,0,0,1-7.35-6.32c-.39-.42-.8-1.13-1.46-1A.76.76,0,0,0,50,69.84a8.45,8.45,0,0,0,2,1.93c.11.09.31,0,.26-.15Z"/><path class="cls-1" d="M203.65,85c-21,12.32-41.59,25.34-62.43,37.94-10.36,6.26-20.79,12.42-31.36,18.33C99.64,147,89.3,152.73,78.62,157.57c-5.19,2.34-10.49,4.43-15.61,6.9-4.87,2.35-9.71,5.06-13.57,8.9a1.71,1.71,0,0,0,2.42,2.42c7-6.83,16.83-10.25,25.58-14.12C88,157,98.1,151.42,108.14,145.8c21.08-11.79,41.54-24.64,62.05-37.38,11.52-7.16,23.09-14.26,34.79-21.13A1.32,1.32,0,0,0,203.65,85Z"/></svg>